<svg xmlns="http://www.w3.org/2000/svg" xmlns:xlink="http://www.w3.org/1999/xlink" viewBox="0 0 2273 547"><defs><linearGradient id="a" x1="85.83" y1="294.17" x2="78.06" y2="7.67" gradientTransform="matrix(1, 0, 0, -1, 0, 548)" gradientUnits="userSpaceOnUse"><stop offset="0" stop-color="#34f8d3"/><stop offset="1" stop-color="#3c4afb"/></linearGradient><linearGradient id="b" x1="128.31" y1="135.51" x2="122.96" y2="484.04" xlink:href="#a"/><linearGradient id="c" x1="43.08" y1="214" x2="169.02" y2="214" gradientTransform="matrix(1, 0, 0, -1, 0, 548)" gradientUnits="userSpaceOnUse"><stop offset="0" stop-color="#2f9db2"/><stop offset="1" stop-color="#292a86"/></linearGradient></defs><path d="M685,161,611,350h33l19-50H774l18,50h44L763,161ZM675,271h0l31-81h26l31,81Z" style="fill:#3555f3"/><path d="M583,252c0-75-30-103-112-103S359,177,359,252c0,76,30,103,112,103h10l40,34h52l-47-40C567,337,583,308,583,252ZM471,326h0c-57,0-70-13-70-74,0-60,13-74,70-74,58,0,70,14,70,74C541,313,529,326,471,326Z" style="fill:#3555f3"/><polygon points="1045 161 864 161 864 190 978 190 860 350 1050 350 1050 321 927 321 1045 161" style="fill:#3555f3"/><path d="M1145,161l-74,189h33l20-50h110l19,50h44l-74-189Zm-10,110h0l31-81h26l31,81Z" style="fill:#3555f3"/><polygon points="2150 321 2267 161 2087 161 2087 190 2201 190 2083 350 2273 350 2273 321 2150 321" style="fill:#3555f3"/><path d="M1908,161l-74,189h33l20-50h110l19,50h44l-74-189Zm-10,110h0l31-81h26l31,81Z" style="fill:#3555f3"/><path d="M1710,271l-10,27h63v27c-15,1-33,2-50,2-60,0-71-14-71-74,0-59,11-74,71-74a270.44,270.44,0,0,1,85,14V159c-21-6-58-10-85-10-84,0-113,27-113,104,0,82,30,102,113,102,32,0,71-2,86-6V271Z" style="fill:#3555f3"/><path d="M1551,252c0-75-30-103-113-103-82,0-112,28-112,103,0,76,30,103,112,103h11l39,33h52l-46-39C1534,337,1551,307,1551,252Zm-113,74h0c-57,0-70-13-70-74,0-60,13-74,70-74,58,0,70,14,70,74C1508,313,1496,326,1438,326Z" style="fill:#3555f3"/><path d="M1042,513h16l3-47,15,47h14l15-47,3,47h16l-5-67h-19l-17,49-17-49h-19Zm-660,0h16V493h17V481H404l17-35H403l-13,31-12-31H359l18,35H365v12h17Zm60,1c17,0,21-22,22-54h17v53h17V446H449c0,33-2,53-12,54a4.94,4.94,0,0,1-3,1l2,13Zm96-1h17V461h17V446H520v15h18Zm69,0h16V461h18V446H589v15h18Zm73-11V482a24.85,24.85,0,0,1,8-1c7,0,11,2,11,11,0,8-4,10-11,10Zm-16,11h24c20,0,28-6,28-21s-8-22-28-22c-2,0-5,1-8,1V446H664Zm60,0h16V446H724Zm89,16h15l1-28H818l-15-24,23-31H807l-20,29h-1V446H769v67h17V481h1l21,32h5Zm72-16h16V481h2l20,32h19l-23-36,23-31H922l-19,29h-2V446H885Zm102,1c19,0,32-8,32-26V472c0-18-13-27-32-27s-31,9-31,27v16C956,506,968,514,987,514Zm0-12c-10,0-14-7-14-16V474c0-10,4-16,14-16,11,0,14,7,14,16v12C1001,495,998,502,987,502Zm164,11h16V460h26v53h17V446h-59Zm165,0h17V484h26v29h16V446h-16v26h-26V446h-17Zm88,0h13l29-43v43h17V446h-14l-29,43V446h-16Zm85,0h18l13-22h8v22h16V446h-28c-20,0-27,10-27,22s4,20,15,22Zm27-33c-7,0-11-3-11-10,0-8,4-11,11-11h12v21Zm-285,33h18l4-14h20l5,14h17l-21-67h-21Zm24-25,8-27,8,27Z" style="fill:#00afef"/><path d="M109,547h1c3-5,12-16,12-16h0l33-47c1-1,1-1,1-2h0a92.23,92.23,0,0,0,5-8h0c7-18-2-38-15-55h0c0-1-1-1-1-2h0L45,290c-2-3-5-8-3-11h0l-4,6L8,327c-6,7-8,15-8,23H0c0,15,9,30,20,43h0l72,93,9,11c7,10,11,20,11,31h0a56.63,56.63,0,0,1-3,18h0Z" style="fill-rule:evenodd;fill:url(#a)"/><path d="M100,1,30,98c-33,46-13,89,7,114h0S166,377,167,378h0c4,6,3,9,2,11h0c2-2,51-71,51-71h0c29-40,20-78-7-113h0l-64-81-17-23c-17-22-31-50-31-79h0c0-6,0-13,2-20h0c1,0,0-1,0-1h0a1,1,0,0,0-1-1c-1,0-1,0-2,1Z" style="fill-rule:evenodd;fill:url(#b)"/><path d="M48,276h0a5.5,5.5,0,0,0-5,3h0c-3,3,0,8,2,11h0l80,102h39a5.5,5.5,0,0,0,5-3h0c1-2,2-5-2-10h0c-1-2-44-57-80-103H48Z" style="fill-rule:evenodd;fill:url(#c)"/><polygon points="1695.12 511.94 1710.01 511.94 1710.01 447.06 1695.12 447.06 1695.12 511.94" style="fill:#00afef"/><path d="M1661.09,501.3h-8.51V481.1h8.51c6.38,0,10.64,2.12,10.64,9.57C1671.73,499.17,1667.47,501.3,1661.09,501.3Zm0-30.84h-8.51v-23.4h-14.89v64.88h23.4c19.14,0,26.59-6.38,26.59-21.27S1680.23,470.46,1661.09,470.46Z" style="fill:#00afef"/><path d="M1598.35,459.83c4.25,0,11.69,2.12,14.88,3.19l2.13-13.83c-2.13-1.06-10.63-3.19-17-3.19-16,0-28.72,8.51-28.72,26.59v13.82c0,18.08,11.7,26.59,28.72,26.59,6.38,0,14.88-2.13,17-3.19L1613.23,496a51.6,51.6,0,0,1-14.88,3.19c-9.58,0-12.77-5.31-12.77-12.76V472.59C1585.58,465.14,1589.84,459.83,1598.35,459.83Z" style="fill:#00afef"/></svg>